<?xml version="1.0" encoding="utf-8"?>
<!-- Generator: Adobe Illustrator 24.0.1, SVG Export Plug-In . SVG Version: 6.00 Build 0)  -->
<svg version="1.1" id="Layer_1" xmlns="http://www.w3.org/2000/svg" xmlns:xlink="http://www.w3.org/1999/xlink" x="0px" y="0px"
	 viewBox="0 0 321.6 79.5" style="enable-background:new 0 0 321.6 79.5;" xml:space="preserve">
<style type="text/css">
	.st0{fill:#fff;}
</style>
<g>
	<g>
		<polygon class="st0" points="40.9,37.8 60.5,49.1 35.8,63.4 11.4,49.3 11.4,49.3 0,42.7 0,54.9 35.8,75.6 71.7,54.9 71.7,43.7 
			51.2,31.8 		"/>
		<polygon class="st0" points="35.8,0 0,20.7 0,31.9 20.5,43.7 30.8,37.8 11.2,26.5 35.8,12.2 71.7,32.9 71.7,20.7 		"/>
		<polygon class="st0" points="59.7,72.5 71.7,79.4 71.7,65.6 		"/>
	</g>
	<g>
		<path class="st0" d="M108.8,16.8l-4.7-1.8c-2.7-1-4.1-1.9-4.1-4c0-3.5,4.1-3.8,5.3-3.8c3,0,5.6,0.9,8.1,2.9l0.8,0.6V5.6L114,5.4
			c-2.3-1.6-5.4-2.4-8.8-2.4c-5,0-10,2.5-10,8c0,4.9,3.5,6.9,7,8.2l4.3,1.6c3.1,1.2,4.4,2.1,4.4,4.4c0,2.6-2.1,4-5.8,4
			c-3.4,0-6.4-1.1-9-3.3l-0.8-0.7v5.3l0.2,0.2c2.3,1.8,5.8,2.8,9.6,2.8c6.3,0,10.5-3.4,10.5-8.4C115.6,21.1,113.6,18.6,108.8,16.8"
			/>
	</g>
	<polygon class="st0" points="143.5,15.7 127.8,15.7 127.8,3.4 123,3.4 123,33.1 127.8,33.1 127.8,20.1 143.5,20.1 143.5,33.1 
		148.3,33.1 148.3,3.4 143.5,3.4 	"/>
	<rect x="157.3" y="3.4" class="st0" width="4.8" height="29.7"/>
	<polygon class="st0" points="191.2,24.2 175.4,3.4 171,3.4 171,33.1 175.7,33.1 175.7,11.4 192.3,33.1 195.9,33.1 195.9,3.4 
		191.2,3.4 	"/>
	<rect x="204.8" y="3.4" class="st0" width="4.8" height="29.7"/>
	<polygon class="st0" points="238.8,24.2 222.9,3.4 218.5,3.4 218.5,33.1 223.2,33.1 223.2,11.4 239.8,33.1 243.4,33.1 243.4,3.4 
		238.8,3.4 	"/>
	<g>
		<path class="st0" d="M271.3,27.4c-1.7,1.3-3.7,1.9-6.3,1.9c-5.8,0-9.6-4.3-9.6-11c0-6.6,4-11,10-11c3.2,0,5.9,1,8.2,3.1l0.8,0.7
			V5.8l-0.2-0.2C272,4,268.8,3,265.4,3c-8.7,0-14.8,6.3-14.8,15.3c0,9.1,5.8,15.3,14.3,15.3c3.1,0,7.5-0.7,10.8-4.3l0.1-0.1V18.2
			h-4.5V27.4z"/>
	</g>
	<polygon class="st0" points="40.9,37.8 60.5,49.2 35.8,63.4 11.4,49.3 11.4,49.3 0,42.7 0,54.9 35.8,75.6 71.7,54.9 71.7,43.7 
		51.2,31.9 	"/>
	<polygon class="st0" points="35.8,0 0,20.7 0,31.9 20.5,43.8 30.8,37.8 11.2,26.5 35.8,12.3 71.7,32.9 71.7,20.7 	"/>
	<polygon class="st0" points="59.7,72.5 71.7,65.6 71.7,79.5 	"/>
	<path class="st0" d="M146.7,60.2c0,5.5-2.5,8.5-7.3,8.5c-4.8,0-7.3-2.9-7.3-8.5V42.8h-4.8v17.8c0,7.6,4.6,12.3,12.1,12.3
		c7.6,0,12.1-4.6,12.1-12.3V42.8h-4.8V60.2z"/>
	<path class="st0" d="M175.4,61.4h-9.5l4.7-12.1L175.4,61.4z M168.6,42.8l-12,29.7h4.9l2.7-6.8h12.9l2.7,6.8h4.9l-12-29.7H168.6z"/>
	<polygon class="st0" points="195.8,42.8 191,42.8 191,72.5 210.9,72.5 210.9,68.2 195.8,68.2 	"/>
	<rect x="217.9" y="42.8" class="st0" width="4.8" height="29.7"/>
	<polygon class="st0" points="229.3,47.1 239.6,47.1 239.6,72.5 244.4,72.5 244.4,47.1 254.8,47.1 254.8,42.8 229.3,42.8 	"/>
	<rect x="261.3" y="42.8" class="st0" width="4.8" height="29.7"/>
	<polygon class="st0" points="275.1,72.5 294.9,72.5 294.9,68.2 279.8,68.2 279.8,59.4 293.5,59.4 293.5,55.2 279.8,55.2 
		279.8,47.1 294.9,47.1 294.9,42.8 275.1,42.8 	"/>
	<g>
		<path class="st0" d="M314.7,56.2l-4.7-1.8c-2.7-1-4.1-1.9-4.1-4c0-3.5,4.1-3.8,5.3-3.8c3,0,5.6,0.9,8.1,2.9l0.8,0.6V45l-0.2-0.1
			c-2.3-1.6-5.4-2.4-8.8-2.4c-5,0-10,2.5-10,8c0,4.9,3.5,6.9,7,8.2l4.3,1.6c3.1,1.2,4.4,2.1,4.4,4.4c0,2.6-2.1,4-5.8,4
			c-3.4,0-6.4-1.1-9-3.3l-0.8-0.7V70l0.2,0.2c2.3,1.8,5.8,2.8,9.6,2.8c6.3,0,10.5-3.4,10.5-8.4C321.6,60.5,319.5,58,314.7,56.2"/>
		<path class="st0" d="M115.8,57.7c0,6.6-3.7,11-9.1,11c-5.3,0-9-4.5-9-11c0-6.6,3.6-11,9-11C112.1,46.7,115.8,51.1,115.8,57.7
			 M106.7,42.4c-8,0-13.9,6.4-13.9,15.3c0,8.8,5.8,15.3,13.9,15.3c0.5,0,1.1,0,1.7-0.1c0.1,0,0.2,0,0.2,0l0.1,0
			c0.5-0.1,0.9-0.2,1.4-0.3l0.2-0.1c0.5-0.1,1-0.3,1.6-0.5c0.4-0.2,0.8-0.4,1.2-0.5l2.4,3l3.4-2.5l-2.5-3c1.9-2,3.2-4.7,3.8-7.7
			l0-0.1c0.1-0.5,0.1-0.9,0.2-1.5l0-0.2c0.1-0.6,0.1-1.2,0.1-1.7C120.6,48.7,114.9,42.4,106.7,42.4"/>
	</g>
</g>
</svg>
