<?xml version="1.0" encoding="utf-8"?>
<!-- Generator: Adobe Illustrator 24.0.1, SVG Export Plug-In . SVG Version: 6.00 Build 0)  -->
<svg version="1.1" id="Layer_1" xmlns="http://www.w3.org/2000/svg" xmlns:xlink="http://www.w3.org/1999/xlink" x="0px" y="0px"
	 viewBox="0 0 302.5 83.8" style="enable-background:new 0 0 302.5 83.8;" xml:space="preserve">
<g>
	<g>
		<polygon points="29.3,27 43.3,35.1 25.6,45.3 8.2,35.2 8.2,35.2 0,30.5 0,39.3 25.6,54 51.3,39.3 51.3,31.2 36.6,22.8 		"/>
		<polygon points="25.6,0 0,14.8 0,22.8 14.6,31.3 22,27 8,18.9 25.6,8.7 51.3,23.5 51.3,14.8 		"/>
		<polygon points="42.7,51.8 51.3,56.8 51.3,46.9 		"/>
	</g>
	<g>
		<path d="M89.7,26.2L85,24.5c-2.7-1-4.1-1.9-4.1-4c0-3.5,4.1-3.8,5.3-3.8c3,0,5.6,0.9,8.1,2.9l0.8,0.6V15l-0.2-0.1
			c-2.3-1.6-5.4-2.4-8.8-2.4c-5,0-10,2.5-10,8c0,4.9,3.5,6.9,7,8.2l4.3,1.6c3.1,1.2,4.4,2.1,4.4,4.4c0,2.6-2.1,4-5.8,4
			c-3.4,0-6.4-1.1-9-3.3l-0.8-0.7v5.3l0.2,0.2c2.3,1.8,5.8,2.8,9.6,2.8c6.3,0,10.5-3.4,10.5-8.4C96.6,30.5,94.5,28,89.7,26.2"/>
	</g>
	<polygon points="124.4,25.2 108.7,25.2 108.7,12.9 103.9,12.9 103.9,42.6 108.7,42.6 108.7,29.5 124.4,29.5 124.4,42.6 129.3,42.6 
		129.3,12.9 124.4,12.9 	"/>
	<rect x="138.2" y="12.9" width="4.8" height="29.7"/>
	<polygon points="172.2,33.7 156.3,12.9 151.9,12.9 151.9,42.6 156.6,42.6 156.6,20.8 173.2,42.6 176.8,42.6 176.8,12.9 172.2,12.9 
			"/>
	<rect x="185.7" y="12.9" width="4.8" height="29.7"/>
	<polygon points="219.7,33.7 203.8,12.9 199.5,12.9 199.5,42.6 204.1,42.6 204.1,20.8 220.8,42.6 224.3,42.6 224.3,12.9 219.7,12.9 
			"/>
	<g>
		<path d="M252.2,36.8c-1.7,1.3-3.7,1.9-6.3,1.9c-5.8,0-9.6-4.3-9.6-11c0-6.6,4-11,10-11c3.2,0,5.9,1,8.2,3.1l0.8,0.7v-5.3l-0.2-0.2
			c-2.2-1.7-5.4-2.7-8.8-2.7c-8.7,0-14.8,6.3-14.8,15.3c0,9.1,5.8,15.3,14.3,15.3c3.1,0,7.5-0.7,10.8-4.3l0.1-0.1V27.7h-4.5V36.8z"
			/>
	</g>
	<polygon points="29.3,27 43.3,35.1 25.6,45.3 8.2,35.3 8.2,35.3 0,30.5 0,39.3 25.6,54.1 51.3,39.3 51.3,31.2 36.6,22.8 	"/>
	<polygon points="25.6,0 0,14.8 0,22.8 14.6,31.3 22,27 8,19 25.6,8.8 51.3,23.6 51.3,14.8 	"/>
	<polygon points="42.7,51.9 51.3,46.9 51.3,56.8 	"/>
	<path d="M127.6,69.6c0,5.5-2.5,8.5-7.3,8.5c-4.8,0-7.3-2.9-7.3-8.5V52.3h-4.8v17.8c0,7.6,4.6,12.3,12.1,12.3
		c7.6,0,12.1-4.6,12.1-12.3V52.3h-4.8V69.6z"/>
	<path d="M156.4,70.8h-9.5l4.7-12.1L156.4,70.8z M149.5,52.3l-12,29.7h4.9l2.7-6.8h12.9l2.7,6.8h4.9l-12-29.7H149.5z"/>
	<polygon points="176.7,52.3 171.9,52.3 171.9,82 191.8,82 191.8,77.6 176.7,77.6 	"/>
	<rect x="198.8" y="52.3" width="4.8" height="29.7"/>
	<polygon points="210.2,56.5 220.5,56.5 220.5,82 225.4,82 225.4,56.5 235.7,56.5 235.7,52.3 210.2,52.3 	"/>
	<rect x="242.3" y="52.3" width="4.8" height="29.7"/>
	<polygon points="256,82 275.9,82 275.9,77.6 260.8,77.6 260.8,68.9 274.5,68.9 274.5,64.6 260.8,64.6 260.8,56.5 275.9,56.5 
		275.9,52.3 256,52.3 	"/>
	<g>
		<path d="M295.6,65.6l-4.7-1.8c-2.7-1-4.1-1.9-4.1-4c0-3.5,4.1-3.8,5.3-3.8c3,0,5.6,0.9,8.1,2.9l0.8,0.6v-5.2l-0.2-0.1
			c-2.3-1.6-5.4-2.4-8.8-2.4c-5,0-10,2.5-10,8c0,4.9,3.5,6.9,7,8.2l4.3,1.6c3.1,1.2,4.4,2.1,4.4,4.4c0,2.6-2.1,4-5.8,4
			c-3.4,0-6.4-1.1-9-3.3l-0.8-0.7v5.3l0.2,0.2c2.3,1.8,5.8,2.8,9.6,2.8c6.3,0,10.5-3.4,10.5-8.4C302.5,69.9,300.4,67.4,295.6,65.6"
			/>
		<path d="M96.7,67.1c0,6.6-3.7,11-9.1,11c-5.3,0-9-4.5-9-11c0-6.6,3.6-11,9-11C93.1,56.2,96.7,60.6,96.7,67.1 M87.6,51.8
			c-8,0-13.9,6.4-13.9,15.3c0,8.8,5.8,15.3,13.9,15.3c0.5,0,1.1,0,1.7-0.1c0.1,0,0.2,0,0.2,0l0.1,0c0.5-0.1,0.9-0.2,1.4-0.3l0.2-0.1
			c0.5-0.1,1-0.3,1.6-0.5c0.4-0.2,0.8-0.4,1.2-0.5l2.4,3l3.4-2.5l-2.5-3c1.9-2,3.2-4.7,3.8-7.7l0-0.1c0.1-0.5,0.1-0.9,0.2-1.5l0-0.2
			c0.1-0.6,0.1-1.2,0.1-1.7C101.5,58.1,95.8,51.8,87.6,51.8"/>
	</g>
</g>
</svg>
